<svg width="70" height="24" viewBox="0 0 70 24" fill="none" xmlns="http://www.w3.org/2000/svg">
<path d="M10 5.75L3.75 12L10 18.25M4.5 12H20.25" stroke="black" stroke-width="1.5" stroke-linecap="round" stroke-linejoin="round"/>
<path d="M33.7562 18V6.35938H38.0531C38.876 6.35938 39.5583 6.49479 40.0999 6.76562C40.6468 7.03125 41.0557 7.39583 41.3265 7.85938C41.5973 8.31771 41.7327 8.83594 41.7327 9.41406C41.7327 9.89844 41.6442 10.3073 41.4671 10.6406C41.29 10.9688 41.0531 11.2344 40.7562 11.4375C40.4593 11.6406 40.1286 11.7891 39.764 11.8828V11.9844C40.1598 12.0104 40.5426 12.138 40.9124 12.3672C41.2822 12.5964 41.5869 12.9193 41.8265 13.3359C42.0661 13.7526 42.1859 14.2578 42.1859 14.8516C42.1859 15.4505 42.0452 15.987 41.764 16.4609C41.4827 16.9349 41.0505 17.3099 40.4671 17.5859C39.8838 17.862 39.139 18 38.2327 18H33.7562ZM35.5296 16.4766H38.0609C38.889 16.4766 39.488 16.3177 39.8577 16C40.2275 15.6771 40.4124 15.2682 40.4124 14.7734C40.4124 14.3984 40.3187 14.0599 40.1312 13.7578C39.9489 13.4557 39.6859 13.2161 39.3421 13.0391C39.0036 12.862 38.5999 12.7734 38.1312 12.7734H35.5296V16.4766ZM35.5296 11.3906H37.8968C38.2926 11.3906 38.6468 11.3177 38.9593 11.1719C39.277 11.0208 39.527 10.8099 39.7093 10.5391C39.8916 10.263 39.9827 9.9401 39.9827 9.57031C39.9827 9.08073 39.8135 8.67708 39.4749 8.35938C39.1364 8.03646 38.6234 7.875 37.9359 7.875H35.5296V11.3906ZM46.3849 18.1875C45.8276 18.1875 45.3276 18.0859 44.8849 17.8828C44.4422 17.6797 44.0906 17.3828 43.8302 16.9922C43.5698 16.5964 43.4396 16.112 43.4396 15.5391C43.4396 15.0495 43.5333 14.6484 43.7208 14.3359C43.9135 14.0182 44.1687 13.7656 44.4864 13.5781C44.8094 13.3906 45.1687 13.2526 45.5646 13.1641C45.9656 13.0703 46.3745 12.9974 46.7911 12.9453C47.3068 12.8828 47.7234 12.8333 48.0411 12.7969C48.364 12.7552 48.601 12.6901 48.7521 12.6016C48.9031 12.513 48.9786 12.3646 48.9786 12.1562V12.1094C48.9786 11.7917 48.9135 11.5208 48.7833 11.2969C48.6583 11.0729 48.4708 10.901 48.2208 10.7812C47.976 10.6615 47.6687 10.6016 47.2989 10.6016C46.9291 10.6016 46.6062 10.6615 46.3302 10.7812C46.0594 10.8958 45.838 11.0443 45.6661 11.2266C45.4995 11.4089 45.3771 11.6016 45.2989 11.8047L43.6818 11.4375C43.864 10.9115 44.1349 10.487 44.4943 10.1641C44.8536 9.83594 45.2755 9.59375 45.7599 9.4375C46.2443 9.28125 46.7521 9.20312 47.2833 9.20312C47.6531 9.20312 48.0359 9.2474 48.4318 9.33594C48.8276 9.42448 49.1948 9.58073 49.5333 9.80469C49.8771 10.0234 50.1557 10.3281 50.3693 10.7188C50.5828 11.1094 50.6896 11.6094 50.6896 12.2188V18H49.0255V16.8047H48.9474C48.8328 17.0339 48.6635 17.2552 48.4396 17.4688C48.2208 17.6771 47.9422 17.849 47.6036 17.9844C47.2651 18.1198 46.8588 18.1875 46.3849 18.1875ZM46.7599 16.8125C47.2286 16.8125 47.6271 16.7214 47.9552 16.5391C48.2885 16.3568 48.5411 16.1172 48.713 15.8203C48.8901 15.5182 48.9786 15.1979 48.9786 14.8594V13.7578C48.9213 13.8151 48.8068 13.8698 48.6349 13.9219C48.4682 13.9688 48.2755 14.013 48.0568 14.0547C47.838 14.0911 47.6219 14.125 47.4083 14.1562C47.2 14.1823 47.0255 14.2031 46.8849 14.2188C46.562 14.2604 46.2677 14.3307 46.0021 14.4297C45.7364 14.5286 45.5229 14.6693 45.3614 14.8516C45.2052 15.0286 45.1271 15.2682 45.1271 15.5703C45.1271 15.8411 45.1974 16.0703 45.338 16.2578C45.4786 16.4401 45.6713 16.5781 45.9161 16.6719C46.1609 16.7656 46.4422 16.8125 46.7599 16.8125ZM56.4276 18.1797C55.6099 18.1797 54.8964 17.9948 54.287 17.625C53.6776 17.25 53.2037 16.7266 52.8651 16.0547C52.5318 15.3776 52.3651 14.5938 52.3651 13.7031C52.3651 12.8021 52.5318 12.0156 52.8651 11.3438C53.2037 10.6667 53.6776 10.1406 54.287 9.76562C54.8964 9.39062 55.6099 9.20312 56.4276 9.20312C56.886 9.20312 57.313 9.26302 57.7089 9.38281C58.1099 9.5026 58.4693 9.67708 58.787 9.90625C59.1047 10.1302 59.3729 10.4062 59.5917 10.7344C59.8104 11.0573 59.9719 11.4219 60.0761 11.8281L58.4433 12.1719C58.3912 11.9479 58.3052 11.7422 58.1854 11.5547C58.0656 11.3672 57.9198 11.2083 57.7479 11.0781C57.5813 10.9427 57.386 10.8385 57.162 10.7656C56.9433 10.6875 56.7011 10.6484 56.4354 10.6484C55.9146 10.6484 55.4823 10.7865 55.1386 11.0625C54.7948 11.3333 54.537 11.7005 54.3651 12.1641C54.1933 12.6224 54.1073 13.1354 54.1073 13.7031C54.1073 14.2604 54.1933 14.7682 54.3651 15.2266C54.537 15.6849 54.7922 16.0521 55.1308 16.3281C55.4745 16.599 55.9094 16.7344 56.4354 16.7344C56.7063 16.7344 56.9537 16.6979 57.1776 16.625C57.4016 16.5469 57.5995 16.4375 57.7714 16.2969C57.9485 16.1562 58.0943 15.9896 58.2089 15.7969C58.3287 15.599 58.4172 15.3828 58.4745 15.1484L60.0995 15.5C60.0005 15.9115 59.8391 16.2839 59.6151 16.6172C59.3964 16.9453 59.1255 17.2266 58.8026 17.4609C58.4849 17.6953 58.1229 17.875 57.7167 18C57.3156 18.1198 56.886 18.1797 56.4276 18.1797ZM63.3298 15.0703V12.9922H63.6032L67.0563 9.32031H69.1188L65.1735 13.5156H64.8844L63.3298 15.0703ZM61.7516 18V6.35938H63.4626V18H61.7516ZM67.2438 18L64.1423 13.8984L65.3219 12.6953L69.3532 18H67.2438Z" fill="black"/>
</svg>
