<svg width="20" height="20" viewBox="0 0 20 20" fill="none" xmlns="http://www.w3.org/2000/svg">
<path d="M6.20499 4.75002C6.20479 5.14784 6.04656 5.52929 5.76512 5.81046C5.48367 6.09162 5.10206 6.24947 4.70424 6.24927C4.30641 6.24907 3.92496 6.09084 3.6438 5.8094C3.36263 5.52795 3.20479 5.14634 3.20499 4.74852C3.20519 4.35069 3.36341 3.96924 3.64486 3.68808C3.9263 3.40691 4.30791 3.24907 4.70574 3.24927C5.10356 3.24947 5.48501 3.40769 5.76618 3.68914C6.04734 3.97058 6.20519 4.35219 6.20499 4.75002ZM6.24999 7.36002H3.24999V16.75H6.24999V7.36002ZM10.99 7.36002H8.00499V16.75H10.96V11.8225C10.96 9.07752 14.5375 8.82252 14.5375 11.8225V16.75H17.5V10.8025C17.5 6.17502 12.205 6.34752 10.96 8.62002L10.99 7.36002Z" fill="#9CA3AF"/>
</svg>
