<svg width="94" height="20" viewBox="0 0 94 20" fill="none" xmlns="http://www.w3.org/2000/svg">
<path fill-rule="evenodd" clip-rule="evenodd" d="M0 13.5L6.5 20H13.5L20 13.5V6.5L13.5 0L10 3.5L6.5 0L0 6.5V13.5ZM0 13.5L10 3.5L20 13.5H0Z" fill="#DB5F39"/>
<path d="M32.0011 17.9644L26.6811 3.06444H29.5411L32.2311 10.8944C32.4311 11.5211 32.6478 12.2211 32.8811 12.9944C33.1211 13.7611 33.3845 14.6178 33.6711 15.5644C33.9511 14.6178 34.2078 13.7611 34.4411 12.9944C34.6745 12.2211 34.8878 11.5211 35.0811 10.8944L37.6811 3.06444H40.5111L35.2911 17.9644H32.0011Z" fill="black"/>
<path d="M41.7711 17.9644V7.40444H44.2911V17.9644H41.7711ZM43.0311 5.83444C42.5978 5.83444 42.2378 5.69778 41.9511 5.42444C41.6645 5.14444 41.5211 4.80111 41.5211 4.39444C41.5211 3.98778 41.6645 3.64778 41.9511 3.37444C42.2378 3.10111 42.5978 2.96444 43.0311 2.96444C43.4578 2.96444 43.8145 3.10111 44.1011 3.37444C44.3878 3.64778 44.5311 3.98778 44.5311 4.39444C44.5311 4.80111 44.3878 5.14444 44.1011 5.42444C43.8145 5.69778 43.4578 5.83444 43.0311 5.83444Z" fill="black"/>
<path d="M46.5311 17.9644V7.40444H48.9611V9.15444H48.9911C49.1845 8.55444 49.4878 8.09778 49.9011 7.78444C50.3211 7.46444 50.8711 7.30444 51.5511 7.30444C51.7245 7.30444 51.8778 7.31111 52.0111 7.32444C52.1511 7.33111 52.2711 7.33778 52.3711 7.34444V9.58444C52.2778 9.57111 52.1178 9.55444 51.8911 9.53444C51.6645 9.51444 51.4278 9.50444 51.1811 9.50444C50.5811 9.50444 50.0745 9.71111 49.6611 10.1244C49.2545 10.5378 49.0511 11.1578 49.0511 11.9844V17.9644H46.5311Z" fill="black"/>
<path d="M58.3511 18.2044C57.2978 18.2044 56.3845 17.9678 55.6111 17.4944C54.8378 17.0211 54.2411 16.3711 53.8211 15.5444C53.4078 14.7111 53.2011 13.7611 53.2011 12.6944C53.2011 11.6211 53.4145 10.6711 53.8411 9.84444C54.2745 9.01111 54.8711 8.35778 55.6311 7.88444C56.3911 7.40444 57.2645 7.16444 58.2511 7.16444C59.2645 7.16444 60.1511 7.39778 60.9111 7.86444C61.6711 8.33111 62.2611 8.97778 62.6811 9.80444C63.1011 10.6244 63.3111 11.5744 63.3111 12.6544V13.3444H55.6711C55.7045 14.2044 55.9578 14.8978 56.4311 15.4244C56.9045 15.9511 57.5645 16.2144 58.4111 16.2144C59.0445 16.2144 59.5678 16.0778 59.9811 15.8044C60.3945 15.5244 60.6745 15.1578 60.8211 14.7044H63.1811C63.0478 15.3911 62.7545 15.9978 62.3011 16.5244C61.8545 17.0511 61.2911 17.4644 60.6111 17.7644C59.9311 18.0578 59.1778 18.2044 58.3511 18.2044ZM55.6911 11.6044H60.8911C60.8111 10.8511 60.5378 10.2578 60.0711 9.82444C59.6111 9.38444 59.0178 9.16444 58.2911 9.16444C57.5578 9.16444 56.9611 9.38444 56.5011 9.82444C56.0478 10.2578 55.7778 10.8511 55.6911 11.6044Z" fill="black"/>
<path d="M67.5511 11.9944V17.9644H65.0311V7.40444H67.5111V9.02444C68.2445 7.80444 69.3245 7.19444 70.7511 7.19444C71.8578 7.19444 72.7611 7.55111 73.4611 8.26444C74.1678 8.97778 74.5211 10.0111 74.5211 11.3644V17.9644H71.9911V11.7644C71.9911 10.9911 71.8045 10.4044 71.4311 10.0044C71.0578 9.60444 70.5345 9.40444 69.8611 9.40444C69.2011 9.40444 68.6511 9.61111 68.2111 10.0244C67.7711 10.4378 67.5511 11.0944 67.5511 11.9944Z" fill="black"/>
<path d="M81.4311 18.2044C80.3778 18.2044 79.4645 17.9678 78.6911 17.4944C77.9178 17.0211 77.3211 16.3711 76.9011 15.5444C76.4878 14.7111 76.2811 13.7611 76.2811 12.6944C76.2811 11.6211 76.4945 10.6711 76.9211 9.84444C77.3545 9.01111 77.9511 8.35778 78.7111 7.88444C79.4711 7.40444 80.3445 7.16444 81.3311 7.16444C82.3445 7.16444 83.2311 7.39778 83.9911 7.86444C84.7511 8.33111 85.3411 8.97778 85.7611 9.80444C86.1811 10.6244 86.3911 11.5744 86.3911 12.6544V13.3444H78.7511C78.7845 14.2044 79.0378 14.8978 79.5111 15.4244C79.9845 15.9511 80.6445 16.2144 81.4911 16.2144C82.1245 16.2144 82.6478 16.0778 83.0611 15.8044C83.4745 15.5244 83.7545 15.1578 83.9011 14.7044H86.2611C86.1278 15.3911 85.8345 15.9978 85.3811 16.5244C84.9345 17.0511 84.3711 17.4644 83.6911 17.7644C83.0111 18.0578 82.2578 18.2044 81.4311 18.2044ZM78.7711 11.6044H83.9711C83.8911 10.8511 83.6178 10.2578 83.1511 9.82444C82.6911 9.38444 82.0978 9.16444 81.3711 9.16444C80.6378 9.16444 80.0411 9.38444 79.5811 9.82444C79.1278 10.2578 78.8578 10.8511 78.7711 11.6044Z" fill="black"/>
<path d="M93.6811 7.40444V9.43444H91.5311V14.9344C91.5311 15.3144 91.6078 15.5778 91.7611 15.7244C91.9145 15.8644 92.1945 15.9344 92.6011 15.9344H93.6811V17.9644H92.1611C91.0878 17.9644 90.2911 17.7478 89.7711 17.3144C89.2578 16.8811 89.0011 16.2111 89.0011 15.3044V9.43444H87.1611V7.40444H89.0011V4.52444H91.5311V7.40444H93.6811Z" fill="black"/>
</svg>
