<svg width="20" height="20" viewBox="0 0 20 20" fill="none" xmlns="http://www.w3.org/2000/svg">
<g id="message-2-line">
<path id="Vector" d="M5.84125 15.25L2.5 17.875V4C2.5 3.80109 2.57902 3.61032 2.71967 3.46967C2.86032 3.32902 3.05109 3.25 3.25 3.25H16.75C16.9489 3.25 17.1397 3.32902 17.2803 3.46967C17.421 3.61032 17.5 3.80109 17.5 4V14.5C17.5 14.6989 17.421 14.8897 17.2803 15.0303C17.1397 15.171 16.9489 15.25 16.75 15.25H5.84125ZM5.32225 13.75H16V4.75H4V14.7887L5.32225 13.75ZM9.25 8.5H10.75V10H9.25V8.5ZM6.25 8.5H7.75V10H6.25V8.5ZM12.25 8.5H13.75V10H12.25V8.5Z" fill="#A3A3A3"/>
</g>
</svg>
